<svg data-v-423bf9ae="" xmlns="http://www.w3.org/2000/svg" viewBox="0 0 445 90" class="iconLeft"><!----><!----><!----><g data-v-423bf9ae="" id="3824aa6a-1c88-401d-ac52-4d6383fb6563" fill="black" transform="matrix(5.190311658471062,0,0,5.190311658471062,109.99823491148055,-67.26644272038742)"><path d="M16.97 16.62L15.72 17.60L12.40 26.67L10.75 27.38L8.57 20.97L6.59 26.67L4.94 27.38L1.32 17.51L-0.01 16.74L0.29 16.11L4.27 16.11L4.27 16.62L3.26 17.37L6.16 25.42L8.15 19.75L7.38 17.51L6.09 16.76L6.40 16.13L10.67 16.13L10.67 16.63L9.39 17.57L11.98 25.41L14.78 17.64L12.35 16.76L12.67 16.13L16.97 16.13L16.97 16.62ZM23.87 25.23L21.46 27.15L21.46 27.15Q20.86 27.27 20.01 27.27L20.01 27.27L20.01 27.27Q19.07 27.27 18.32 26.79L18.32 26.79L18.32 26.79Q17.57 26.31 17.14 25.48L17.14 25.48L17.14 25.48Q16.72 24.65 16.72 23.65L16.72 23.65L16.72 23.65Q16.72 22.55 17.38 21.61L17.38 21.61L17.38 21.61Q18.05 20.66 19.05 20.10L19.05 20.10L19.05 20.10Q20.06 19.53 21 19.53L21 19.53L21 19.53Q22.36 19.53 23.11 20.59L23.11 20.59L23.11 20.59Q23.86 21.66 23.84 23.44L23.84 23.44L18.69 23.44L18.69 23.44Q18.79 24.56 19.33 25.26L19.33 25.26L19.33 25.26Q19.88 25.97 20.82 25.97L20.82 25.97L20.82 25.97Q21.74 25.97 23.45 24.65L23.45 24.65L23.87 25.23ZM20.20 20.80L20.20 20.80Q18.76 20.80 18.69 22.79L18.69 22.79L21.84 22.79L21.84 22.79Q21.71 22.08 21.58 21.69L21.58 21.69L21.58 21.69Q21.45 21.29 21.13 21.05L21.13 21.05L21.13 21.05Q20.80 20.80 20.19 20.80L20.19 20.80L20.20 20.80ZM35.70 15.85L35.70 15.85Q36.46 15.85 37.45 16.06L37.45 16.06L37.45 16.06Q38.44 16.27 38.91 16.51L38.91 16.51L38.91 19.28L38.21 19.28L38.21 19.28Q36.96 17.11 34.89 17.11L34.89 17.11L34.89 17.11Q33.99 17.11 33.26 17.64L33.26 17.64L33.26 17.64Q32.52 18.17 32.09 19.11L32.09 19.11L32.09 19.11Q31.67 20.05 31.67 21.21L31.67 21.21L31.67 21.21Q31.67 22.55 32.08 23.66L32.08 23.66L32.08 23.66Q32.49 24.77 33.35 25.43L33.35 25.43L33.35 25.43Q34.20 26.10 35.46 26.10L35.46 26.10L35.46 26.10Q36.68 26.10 38.92 24.39L38.92 24.39L39.37 25.10L36.79 27.10L36.79 27.10Q36.26 27.29 35.76 27.35L35.76 27.35L35.76 27.35Q35.25 27.41 34.68 27.41L34.68 27.41L34.68 27.41Q33.19 27.41 32.04 26.70L32.04 26.70L32.04 26.70Q30.88 25.98 30.25 24.73L30.25 24.73L30.25 24.73Q29.61 23.48 29.61 21.88L29.61 21.88L29.61 21.88Q29.61 20.24 30.58 18.85L30.58 18.85L30.58 18.85Q31.54 17.46 32.97 16.65L32.97 16.65L32.97 16.65Q34.40 15.85 35.70 15.85L35.70 15.85ZM48.68 26.50L48.37 27.13L45.60 27.13L45.60 25.91L44.02 27.16L44.02 27.16Q43.74 27.27 43.32 27.27L43.32 27.27L43.32 27.27Q42.08 27.27 41.54 26.66L41.54 26.66L41.54 26.66Q40.99 26.05 40.99 25.19L40.99 25.19L40.99 25.19Q40.99 24.68 41.34 24.19L41.34 24.19L41.34 24.19Q41.69 23.69 42.36 23.24L42.36 23.24L45.60 23.24L45.60 22.48L45.60 22.48Q45.60 20.85 43.85 20.85L43.85 20.85L43.85 20.85Q42.97 20.85 41.64 21.84L41.64 21.84L41.22 21.25L43.22 19.67L43.22 19.67Q43.86 19.53 44.62 19.53L44.62 19.53L44.62 19.53Q45.95 19.53 46.68 20.17L46.68 20.17L46.68 20.17Q47.42 20.82 47.42 22.04L47.42 22.04L47.42 26.01L48.68 26.50ZM43.82 25.94L43.82 25.94Q44.65 25.94 45.60 25.20L45.60 25.20L45.60 23.88L43.16 23.88L43.16 23.88Q42.99 24.09 42.92 24.30L42.92 24.30L42.92 24.30Q42.85 24.51 42.85 24.77L42.85 24.77L42.85 24.77Q42.85 25.26 43.12 25.60L43.12 25.60L43.12 25.60Q43.39 25.94 43.82 25.94L43.82 25.94ZM54.15 21.11L54.15 21.11Q53.86 21.11 53.54 21.27L53.54 21.27L53.54 21.27Q53.21 21.42 52.81 21.83L52.81 21.83L52.81 25.93L54.80 26.52L54.49 27.15L49.74 27.15L49.74 26.64L50.99 25.65L50.99 21.84L49.74 21.10L49.74 20.59L52.23 19.40L52.70 21.10L54.11 19.64L54.11 19.64Q54.43 19.53 54.87 19.53L54.87 19.53L54.87 19.53Q55.38 19.53 55.77 19.80L55.77 19.80L55.77 19.80Q56.15 20.06 56.35 20.55L56.35 20.55L55.34 21.81L54.74 21.81L54.74 21.81Q54.68 21.43 54.54 21.27L54.54 21.27L54.54 21.27Q54.40 21.11 54.15 21.11L54.15 21.11ZM64.47 25.23L62.06 27.15L62.06 27.15Q61.46 27.27 60.61 27.27L60.61 27.27L60.61 27.27Q59.67 27.27 58.92 26.79L58.92 26.79L58.92 26.79Q58.17 26.31 57.74 25.48L57.74 25.48L57.74 25.48Q57.32 24.65 57.32 23.65L57.32 23.65L57.32 23.65Q57.32 22.55 57.98 21.61L57.98 21.61L57.98 21.61Q58.65 20.66 59.65 20.10L59.65 20.10L59.65 20.10Q60.66 19.53 61.60 19.53L61.60 19.53L61.60 19.53Q62.96 19.53 63.71 20.59L63.71 20.59L63.71 20.59Q64.46 21.66 64.44 23.44L64.44 23.44L59.29 23.44L59.29 23.44Q59.39 24.56 59.93 25.26L59.93 25.26L59.93 25.26Q60.48 25.97 61.42 25.97L61.42 25.97L61.42 25.97Q62.34 25.97 64.05 24.65L64.05 24.65L64.47 25.23ZM60.80 20.80L60.80 20.80Q59.36 20.80 59.29 22.79L59.29 22.79L62.44 22.79L62.44 22.79Q62.31 22.08 62.18 21.69L62.18 21.69L62.18 21.69Q62.05 21.29 61.73 21.05L61.73 21.05L61.73 21.05Q61.40 20.80 60.79 20.80L60.79 20.80L60.80 20.80Z"></path></g><!----><g data-v-423bf9ae="" id="3e748d6e-fe3c-40e9-ac79-d68bbc36dca8" transform="matrix(1.4507471640344454,0,0,1.4507471640344454,-1.423909222235629,-0.4340695456168646)" stroke="none" fill="black"><path d="M59 15a4 4 0 0 0-4 4v12.654L52.918 34.3A3 3 0 0 0 50 32h-.131a3.01 3.01 0 0 0-2.193.954L35.345 46.165A4.983 4.983 0 0 0 34 49.576V62a1 1 0 0 0 1 1h12a1 1 0 0 0 1-1v-4.343a2.983 2.983 0 0 1 .878-2.122l7.829-7.828a1.031 1.031 0 0 0 .171-.228l6-11A1 1 0 0 0 63 36V19a4 4 0 0 0-4-4zm2 20.745L55.191 46.4l-7.727 7.726A4.968 4.968 0 0 0 46 57.657V61H36V49.576a2.988 2.988 0 0 1 .807-2.046l12.332-13.213a1 1 0 0 1 .73-.317H50a1 1 0 0 1 1 1v1.745l-6.786 8.637 1.572 1.236 11-14A1 1 0 0 0 57 32V19a2 2 0 0 1 4 0zM16.324 32.954A3.01 3.01 0 0 0 14.131 32H14a3 3 0 0 0-2.918 2.3L9 31.654V19a4 4 0 0 0-8 0v17a1 1 0 0 0 .122.479l6 11a1.031 1.031 0 0 0 .171.228l7.829 7.828A2.983 2.983 0 0 1 16 57.657V62a1 1 0 0 0 1 1h12a1 1 0 0 0 1-1V49.576a4.983 4.983 0 0 0-1.345-3.411zM28 61H18v-3.343a4.968 4.968 0 0 0-1.464-3.536L8.809 46.4 3 35.745V19a2 2 0 0 1 4 0v13a1 1 0 0 0 .214.618l11 14 1.572-1.236L13 36.745V35a1 1 0 0 1 1-1h.131a1 1 0 0 1 .731.318L27.193 47.53A2.988 2.988 0 0 1 28 49.576z"></path><path d="M36 40a5 5 0 0 0 4.908-4.092 5 5 0 0 0 4-5.842A4.958 4.958 0 0 0 47 26a4.886 4.886 0 0 0-.062-.737A17.765 17.765 0 0 0 53 11.823 10.9 10.9 0 0 0 42.1.963h-.041a10.831 10.831 0 0 0-7.7 3.221L32 6.566l-2.365-2.382A10.9 10.9 0 0 0 11 11.823a17.764 17.764 0 0 0 6.06 13.438 4.939 4.939 0 0 0 2.028 4.8 4.995 4.995 0 0 0 4 5.846A4.976 4.976 0 0 0 32 37.969 4.982 4.982 0 0 0 36 40zM13 11.83a8.91 8.91 0 0 1 8.9-8.867h.033a8.838 8.838 0 0 1 6.283 2.63L31.2 8.6a1.061 1.061 0 0 0 1.646-.055l2.934-2.956a8.845 8.845 0 0 1 6.284-2.63h.036A8.91 8.91 0 0 1 51 11.83a15.767 15.767 0 0 1-4.83 11.426 5.036 5.036 0 0 0-1.258-1.318 4.995 4.995 0 0 0-4-5.846A4.976 4.976 0 0 0 32 14.031a4.976 4.976 0 0 0-8.908 2.061 5 5 0 0 0-4 5.842 4.936 4.936 0 0 0-1.265 1.314A15.767 15.767 0 0 1 13 11.83zM28 38a2.993 2.993 0 0 1-2.86-2.143A5 5 0 0 0 29 31h-2a3 3 0 1 1-5.812-1.051 1 1 0 0 0-.5-1.249 3 3 0 0 1 0-5.4 1 1 0 0 0 .5-1.251A3 3 0 1 1 27 21h2a5 5 0 0 0-3.86-4.857A2.991 2.991 0 0 1 31 17v18a3 3 0 0 1-3 3zm5-21a2.991 2.991 0 0 1 5.86-.857A5 5 0 0 0 35 21h2a3 3 0 1 1 5.812 1.051 1 1 0 0 0 .5 1.249 3 3 0 0 1 0 5.4 1 1 0 0 0-.5 1.251A3 3 0 1 1 37 31h-2a5 5 0 0 0 3.86 4.857A2.991 2.991 0 0 1 33 35z"></path></g><!----></svg>